Model2392_S4_states																							
version=1																							
nRows=42																							
nColumns=24																							
inDegrees=yes																							
																							
"Units are S.I. units (second, meters, Newtons, ...)"																							
Angles are in degrees.																							
																							
endheader																							
time	pelvis_tilt	pelvis_list	pelvis_rotation	pelvis_tx	pelvis_ty	pelvis_tz	hip_flexion_r	hip_adduction_r	hip_rotation_r	knee_angle_r	ankle_angle_r	subtalar_angle_r	mtp_angle_r	hip_flexion_l	hip_adduction_l	hip_rotation_l	knee_angle_l	ankle_angle_l	subtalar_angle_l	mtp_angle_l	lumbar_extension	lumbar_bending	lumbar_rotation
1.27111566	0	0	0	0	0.95	0	8.76589721	0	0	-56.32956236	-6.25034885	0	0	6.02771516	0	0	-8.1285151	5.17587484	0	0	0	0	0
1.27228964	0	0	0	0	0.95	0	8.9279938	0	0	-56.41338914	-6.04517574	0	0	5.8764371	0	0	-8.06001183	5.17403074	0	0	0	0	0
1.27397779	0	0	0	0	0.95	0	9.16036065	0	0	-56.52737102	-5.76311407	0	0	5.66052771	0	0	-7.96522943	5.17751129	0	0	0	0	0
1.27495487	0	0	0	0	0.95	0	9.29444591	0	0	-56.5898841	-5.60571846	0	0	5.53641919	0	0	-7.91226501	5.18114451	0	0	0	0	0
1.27628503	0	0	0	0	0.95	0	9.47647739	0	0	-56.671033	-5.39615151	0	0	5.36844134	0	0	-7.84221645	5.18541345	0	0	0	0	0
1.27761518	0	0	0	0	0.95	0	9.65789247	0	0	-56.74776901	-5.18922742	0	0	5.20155424	0	0	-7.77433928	5.18606251	0	0	0	0	0
1.27880154	0	0	0	0	0.95	0	9.81914258	0	0	-56.81261013	-5.00436328	0	0	5.05359534	0	0	-7.71546265	5.18127049	0	0	0	0	0
1.2799879	0	0	0	0	0.95	0	9.97984561	0	0	-56.8741633	-4.8170924	0	0	4.90645323	0	0	-7.65804176	5.16975705	0	0	0	0	0
1.28003576	0	0	0	0	0.95	0	9.9863162	0	0	-56.87657863	-4.80946259	0	0	4.90053501	0	0	-7.65575524	5.169135	0	0	0	0	0
1.28008361	0	0	0	0	0.95	0	9.99278587	0	0	-56.87898875	-4.80182595	0	0	4.89461812	0	0	-7.65347098	5.16850022	0	0	0	0	0
1.28032288	0	0	0	0	0.95	0	10.02512026	0	0	-56.89096149	-4.7635374	0	0	4.86505347	0	0	-7.64208379	5.16513429	0	0	0	0	0
1.28151924	0	0	0	0	0.95	0	10.1864428	0	0	-56.94889627	-4.56921494	0	0	4.71772732	0	0	-7.58600143	5.14350761	0	0	0	0	0
1.28271559	0	0	0	0	0.95	0	10.34718555	0	0	-57.00365113	-4.3698415	0	0	4.57124197	0	0	-7.5313902	5.11449248	0	0	0	0	0
1.28391195	0	0	0	0	0.95	0	10.50736886	0	0	-57.05525464	-4.16588315	0	0	4.42563048	0	0	-7.47839065	5.07988879	0	0	0	0	0
1.2851083	0	0	0	0	0.95	0	10.66702375	0	0	-57.10370873	-3.95857165	0	0	4.28094148	0	0	-7.42721402	5.04240255	0	0	0	0	0
1.28647388	0	0	0	0	0.95	0	10.84865704	0	0	-57.15513928	-3.72002733	0	0	4.11698749	0	0	-7.37134732	5.00021905	0	0	0	0	0
1.28749822	0	0	0	0	0.95	0	10.98451041	0	0	-57.19098049	-3.54137553	0	0	3.99489169	0	0	-7.33144321	4.97183142	0	0	0	0	0
1.28852256	0	0	0	0	0.95	0	11.12004994	0	0	-57.22445682	-3.36426283	0	0	3.87359391	0	0	-7.29341676	4.94834547	0	0	0	0	0
1.28916313	0	0	0	0	0.95	0	11.20465736	0	0	-57.24418333	-3.25475216	0	0	3.7981581	0	0	-7.27064403	4.93684981	0	0	0	0	0
1.28967971	0	0	0	0	0.95	0	11.27280598	0	0	-57.25941144	-3.16731606	0	0	3.73756069	0	0	-7.25286126	4.92961477	0	0	0	0	0
1.28996362	0	0	0	0	0.95	0	11.31022841	0	0	-57.26752156	-3.11963528	0	0	3.70434834	0	0	-7.24331266	4.92645862	0	0	0	0	0
1.29000846	0	0	0	0	0.95	0	11.3161368	0	0	-57.26878564	-3.1121302	0	0	3.69910881	0	0	-7.24181924	4.92601471	0	0	0	0	0
1.2900533	0	0	0	0	0.95	0	11.32204465	0	0	-57.27004513	-3.10463221	0	0	3.69387089	0	0	-7.24032982	4.92558583	0	0	0	0	0
1.29027749	0	0	0	0	0.95	0	11.35157582	0	0	-57.27627379	-3.06725044	0	0	3.66770557	0	0	-7.23294289	4.9236681	0	0	0	0	0
1.29139847	0	0	0	0	0.95	0	11.49903185	0	0	-57.30569647	-2.88322376	0	0	3.53748386	0	0	-7.19750885	4.91976306	0	0	0	0	0
1.29306722	0	0	0	0	0.95	0	11.71793191	0	0	-57.34419214	-2.61893112	0	0	3.34545583	0	0	-7.14923736	4.92994214	0	0	0	0	0
1.29418015	0	0	0	0	0.95	0	11.86351065	0	0	-57.36636035	-2.44916062	0	0	3.2185369	0	0	-7.11975667	4.94437184	0	0	0	0	0
1.29529307	0	0	0	0	0.95	0	12.00874927	0	0	-57.3857603	-2.28410218	0	0	3.09246451	0	0	-7.0921419	4.96131759	0	0	0	0	0
1.296406	0	0	0	0	0.95	0	12.15363112	0	0	-57.40243344	-2.12296376	0	0	2.96716737	0	0	-7.06609112	4.97714445	0	0	0	0	0
1.29781673	0	0	0	0	0.95	0	12.33673843	0	0	-57.41972689	-1.92275583	0	0	2.80934635	0	0	-7.03484672	4.98987871	0	0	0	0	0
1.29922746	0	0	0	0	0.95	0	12.51920744	0	0	-57.43283959	-1.72499215	0	0	2.6525325	0	0	-7.0050938	4.98838154	0	0	0	0	0
1.2996486	0	0	0	0	0.95	0	12.57355042	0	0	-57.43596107	-1.66609958	0	0	2.60590003	0	0	-6.99643891	4.98442699	0	0	0	0	0
1.29995725	0	0	0	0	0.95	0	12.61333848	0	0	-57.43801949	-1.62292059	0	0	2.57177447	0	0	-6.99015367	4.98040374	0	0	0	0	0
1.30001504	0	0	0	0	0.95	0	12.62078385	0	0	-57.43838342	-1.61483313	0	0	2.56539024	0	0	-6.98898218	4.97954232	0	0	0	0	0
1.30007282	0	0	0	0	0.95	0	12.62822803	0	0	-57.43874061	-1.60674424	0	0	2.5590075	0	0	-6.9878123	4.97864644	0	0	0	0	0
1.30036175	0	0	0	0	0.95	0	12.66543121	0	0	-57.44042562	-1.56627437	0	0	2.52711597	0	0	-6.98198685	4.97364671	0	0	0	0	0
1.30161669	0	0	0	0	0.95	0	12.82667277	0	0	-57.44580452	-1.38979829	0	0	2.3890252	0	0	-6.95714628	4.94193155	0	0	0	0	0
1.30287162	0	0	0	0	0.95	0	12.98733958	0	0	-57.44804616	-1.21206929	0	0	2.25165144	0	0	-6.93315795	4.89554317	0	0	0	0	0
1.30422639	0	0	0	0	0.95	0	13.16014733	0	0	-57.44694849	-1.01946771	0	0	2.10423296	0	0	-6.90858924	4.83428513	0	0	0	0	0
1.30558116	0	0	0	0	0.95	0	13.33231519	0	0	-57.44219022	-0.82759573	0	0	1.9578633	0	0	-6.88601735	4.76994061	0	0	0	0	0
1.30678019	0	0	0	0	0.95	0	13.48418605	0	0	-57.43491427	-0.65991116	0	0	1.82932005	0	0	-6.86830316	4.71855938	0	0	0	0	0
1.30797923	0	0	0	0	0.95	0	13.63560699	0	0	-57.42475523	-0.49561344	0	0	1.7018265	0	0	-6.85323716	4.67955922	0	0	0	0	0
